HIERARCHY
ROOT Hips
{
	OFFSET 0.000000 0.000000 0.000000
	CHANNELS 6 Xposition Yposition Zposition Zrotation Yrotation Xrotation 
	JOINT LowerBack
	{
		OFFSET 0.000000 0.000000 0.000000
		CHANNELS 3 Zrotation Yrotation Xrotation
		JOINT Spine
		{
			OFFSET 0.028270 2.035590 -0.193380
			CHANNELS 3 Zrotation Yrotation Xrotation
			JOINT Spine1
			{
				OFFSET 0.056720 2.048850 -0.042750
				CHANNELS 3 Zrotation Yrotation Xrotation
				JOINT Neck
				{
					OFFSET 0.000000 0.000000 0.000000
					CHANNELS 3 Zrotation Yrotation Xrotation
					JOINT Neck1
					{
						OFFSET -0.054170 1.746240 0.172020
						CHANNELS 3 Zrotation Yrotation Xrotation
						JOINT Head
						{
							OFFSET 0.104070 1.761360 -0.123970
							CHANNELS 3 Zrotation Yrotation Xrotation
							End Site
							{
								OFFSET 0.000000 0.000000 0.000000
							}
						}
					}
				}
				JOINT LeftShoulder
				{
					OFFSET 0.000000 0.000000 0.000000
					CHANNELS 3 Zrotation Yrotation Xrotation
					JOINT LeftArm
					{
						OFFSET 3.362410 1.200890 -0.311210
						CHANNELS 3 Zrotation Yrotation Xrotation
						JOINT LeftForeArm
						{
							OFFSET 4.983000 -0.000000 -0.000000
							CHANNELS 3 Zrotation Yrotation Xrotation
							JOINT LeftHand
							{
								OFFSET 3.483560 -0.000000 -0.000000
								CHANNELS 3 Zrotation Yrotation Xrotation
								JOINT LeftFingerBase
								{
									OFFSET 0.000000 0.000000 0.000000
									CHANNELS 3 Zrotation Yrotation Xrotation
									JOINT LeftHandIndex1
									{
										OFFSET 0.715260 -0.000000 -0.000000
										CHANNELS 3 Zrotation Yrotation Xrotation
										End Site
										{
											OFFSET 0.000000 0.000000 0.000000
										}
									}
								}
								JOINT LThumb
								{
									OFFSET 0.000000 0.000000 0.000000
									CHANNELS 3 Zrotation Yrotation Xrotation
									End Site
									{
										OFFSET 0.000000 0.000000 0.000000
									}
								}
							}
						}
					}
				}
				JOINT RightShoulder
				{
					OFFSET 0.000000 0.000000 0.000000
					CHANNELS 3 Zrotation Yrotation Xrotation
					JOINT RightArm
					{
						OFFSET -3.136600 1.374050 -0.404650
						CHANNELS 3 Zrotation Yrotation Xrotation
						JOINT RightForeArm
						{
							OFFSET -5.241900 -0.000000 -0.000000
							CHANNELS 3 Zrotation Yrotation Xrotation
							JOINT RightHand
							{
								OFFSET -3.444170 -0.000000 -0.000000
								CHANNELS 3 Zrotation Yrotation Xrotation
								JOINT RightFingerBase
								{
									OFFSET 0.000000 0.000000 0.000000
									CHANNELS 3 Zrotation Yrotation Xrotation
									JOINT RightHandIndex1
									{
										OFFSET -0.622530 -0.000000 -0.000000
										CHANNELS 3 Zrotation Yrotation Xrotation
										End Site
										{
											OFFSET 0.000000 0.000000 0.000000
										}
									}
								}
								JOINT RThumb
								{
									OFFSET 0.000000 0.000000 0.000000
									CHANNELS 3 Zrotation Yrotation Xrotation
									End Site
									{
										OFFSET 0.000000 0.000000 0.000000
									}
								}
							}
						}
					}
				}
			}
		}
	}
}
}
MOTION
Frames: 10
Frame Time: 0.008333
5.235695 17.380284 1.309789 -176.967320 -60.090196 -175.035031 3.706290 -5.103948 -3.692613 0.764411 -5.432391 -3.814319 -4.947787 -5.474260 -1.623153 6.645350 -5.342650 2.275776 -0.524135 -0.202458 2.728956 0.000000 0.000000 0.000000 12.869559 -5.467621 3.469846 -51.078015 -33.525027 -5.587755 -3.600897 -8.570973 -0.025610 -2.122966 10.870243 -0.185371 -0.157396 0.110252 0.000000 0.000000 0.000000 0.000000 0.000000 0.000000 0.000000 -6.672313 -7.072154 -9.183960 78.861291 53.720659 0.125237 -174.961311 61.668974 179.701056 -12.526953 18.936117 -2.215401 -0.159096 -1.189931 0.000000 0.000000 0.000000 0.000000 0.000000 0.000000 0.000000 
5.248209 17.376918 1.310910 -177.083808 -59.802761 -174.933562 3.639964 -5.058732 -3.609104 0.763863 -5.379746 -3.802982 -4.922443 -5.427555 -1.594255 6.560899 -5.315262 2.117284 -0.498951 -0.198164 2.686412 0.000000 0.000000 0.000000 11.889602 -5.061359 3.524908 -52.552669 -32.505217 -5.833576 -3.733050 -10.560122 -0.020170 -4.271039 12.083349 -0.434384 -0.133660 0.104065 0.000000 0.000000 0.000000 0.000000 0.000000 0.000000 0.000000 -7.060727 -6.901654 -9.086430 78.036668 53.258209 -0.908481 -174.907161 61.383316 179.698474 -12.935332 18.650570 -2.257670 -0.145526 -1.187628 0.000000 0.000000 0.000000 0.000000 0.000000 0.000000 0.000000 
5.261123 17.374871 1.311161 -177.167175 -59.575214 -174.842272 3.560681 -5.012861 -3.541962 0.761412 -5.325932 -3.794312 -4.891709 -5.379867 -1.566134 6.472856 -5.283350 1.967226 -0.471763 -0.193883 2.645997 0.000000 0.000000 0.000000 11.096696 -4.675331 3.574568 -53.870695 -31.559944 -5.739319 -3.870357 -12.658501 -0.016267 -6.546160 13.631086 -0.764422 -0.114082 0.092717 0.000000 0.000000 0.000000 0.000000 0.000000 0.000000 0.000000 -7.443066 -6.737346 -8.995889 77.173189 52.822188 -2.003019 -174.852398 61.126885 179.696170 -13.320815 18.349176 -2.291735 -0.132750 -1.184471 0.000000 0.000000 0.000000 0.000000 0.000000 0.000000 0.000000 
5.274431 17.374160 1.310706 -177.218154 -59.411604 -174.763914 3.469740 -4.967187 -3.488920 0.756376 -5.271824 -3.788051 -4.857509 -5.331708 -1.542813 6.382331 -5.252467 1.835303 -0.445225 -0.189933 2.610377 0.000000 0.000000 0.000000 10.506267 -4.331303 3.607361 -55.044670 -30.727685 -5.476988 -3.981496 -14.766824 -0.014143 -8.628210 15.243591 -1.137487 -0.099373 0.079980 0.000000 0.000000 0.000000 0.000000 0.000000 0.000000 0.000000 -7.800464 -6.588550 -8.912154 76.284379 52.427590 -3.131567 -174.801395 60.909230 179.694292 -13.660838 18.053558 -2.316102 -0.121428 -1.180808 0.000000 0.000000 0.000000 0.000000 0.000000 0.000000 0.000000 
5.288211 17.374692 1.309585 -177.240781 -59.312894 -174.698039 3.371088 -4.923428 -3.447412 0.748849 -5.219374 -3.783612 -4.821923 -5.284705 -1.525920 6.286656 -5.230947 1.726978 -0.421196 -0.186513 2.581082 0.000000 0.000000 0.000000 10.106830 -4.036911 3.616463 -56.061390 -30.017397 -5.105146 -4.041921 -16.898750 -0.013647 -10.288906 16.758687 -1.500472 -0.088982 0.067742 -0.000000 0.000000 0.000000 0.000000 0.000000 0.000000 0.000000 -8.123929 -6.464676 -8.835996 75.394328 52.089136 -4.263457 -174.756913 60.733204 179.692937 -13.937401 17.781453 -2.330672 -0.112104 -1.177069 0.000000 0.000000 0.000000 0.000000 0.000000 0.000000 0.000000 
5.302353 17.376289 1.307971 -177.237235 -59.277976 -174.644529 3.266793 -4.884016 -3.413926 0.738539 -5.171077 -3.780716 -4.787616 -5.241173 -1.519081 6.186345 -5.221236 1.647517 -0.401247 -0.183806 2.559609 0.000000 0.000000 0.000000 9.882696 -3.801757 3.595654 -56.906686 -29.429489 -4.706771 -4.030205 -19.074538 -0.014072 -11.349468 18.031210 -1.788070 -0.081564 0.057484 -0.000000 0.000000 0.000000 0.000000 0.000000 0.000000 0.000000 -8.403095 -6.368110 -8.766447 74.514993 51.817352 -5.379566 -174.721255 60.600396 179.692104 -14.143937 17.548839 -2.336743 -0.104955 -1.173665 0.000000 0.000000 0.000000 0.000000 0.000000 0.000000 0.000000 
5.317094 17.378706 1.305944 -177.214332 -59.303846 -174.603280 3.159378 -4.851461 -3.382421 0.725577 -5.129441 -3.778354 -4.756679 -5.203449 -1.524087 6.080079 -5.226786 1.597925 -0.386151 -0.181869 2.546248 0.000000 0.000000 0.000000 9.799600 -3.617824 3.541877 -57.548784 -28.961275 -4.306183 -3.931177 -21.365070 -0.014631 -11.699411 18.973912 -1.944072 -0.075820 0.050115 -0.000000 0.000000 0.000000 0.000000 0.000000 0.000000 0.000000 -8.636343 -6.301315 -8.703322 73.661887 51.619620 -6.464503 -174.695120 60.504647 179.691736 -14.277939 17.370215 -2.336615 -0.100032 -1.171087 0.000000 0.000000 0.000000 0.000000 0.000000 0.000000 0.000000 
5.332340 17.381670 1.303615 -177.174743 -59.385754 -174.572672 3.049974 -4.827395 -3.348621 0.709940 -5.096021 -3.776343 -4.730716 -5.173066 -1.544457 5.968812 -5.245869 1.579297 -0.376639 -0.180763 2.541325 0.000000 0.000000 0.000000 9.826591 -3.479381 3.451163 -57.967490 -28.609630 -3.961498 -3.735393 -23.814375 -0.014528 -11.278565 19.490787 -1.926567 -0.070825 0.047096 -0.000000 0.000000 0.000000 0.000000 0.000000 0.000000 0.000000 -8.821875 -6.261753 -8.644660 72.839121 51.496405 -7.512971 -174.679083 60.441277 179.691716 -14.346692 17.255055 -2.333390 -0.097071 -1.169669 0.000000 0.000000 0.000000 0.000000 0.000000 0.000000 0.000000 
5.348030 17.384940 1.301072 -177.123021 -59.517302 -174.551003 2.938465 -4.812498 -3.310300 0.691685 -5.071328 -3.775546 -4.709864 -5.150704 -1.585714 5.853687 -5.272370 1.593472 -0.373340 -0.180558 2.545406 0.000000 0.000000 0.000000 9.937837 -3.386321 3.319070 -58.156427 -28.358998 -3.740554 -3.441239 -26.455883 -0.013364 -10.091218 19.499225 -1.722546 -0.066377 0.050444 -0.000000 0.000000 0.000000 0.000000 0.000000 0.000000 0.000000 -8.961716 -6.243348 -8.587709 72.045298 51.441017 -8.525490 -174.671629 60.399635 179.691892 -14.368375 17.198453 -2.329863 -0.095468 -1.169439 0.000000 0.000000 0.000000 0.000000 0.000000 0.000000 0.000000 
5.364077 17.388231 1.298367 -177.063058 -59.691377 -174.534909 2.825050 -4.805933 -3.265493 0.671325 -5.054365 -3.776394 -4.692664 -5.135533 -1.650482 5.734232 -5.302531 1.638841 -0.376374 -0.181234 2.558068 0.000000 0.000000 0.000000 10.104400 -3.321383 3.141981 -58.116495 -28.209159 -3.683039 -3.057183 -29.315956 -0.011463 -8.215705 18.946899 -1.358212 -0.062977 0.062510 0.000000 0.000000 0.000000 0.000000 0.000000 0.000000 0.000000 -9.064460 -6.243489 -8.530453 71.281373 51.442340 -9.504653 -174.671315 60.369736 179.692114 -14.359026 17.197647 -2.328432 -0.094678 -1.170480 0.000000 0.000000 0.000000 0.000000 0.000000 0.000000 0.000000 
